<svg width="29" height="36" viewBox="0 0 29 36" fill="none" xmlns="http://www.w3.org/2000/svg">
<path fill-rule="evenodd" clip-rule="evenodd" d="M16.113 26.24H12.9358V32.9942C12.9358 34.3318 11.8391 35.4285 10.5015 35.4285H8.39869C7.06114 35.4285 5.9644 34.3318 5.9644 32.9942V26.24H2.59298C1.12689 26.24 0.158691 25.0578 0.158691 23.76V21.84C0.158691 20.4586 1.25423 19.4514 2.59298 19.4514H5.9644V16.5943H2.59298C2.05475 16.5943 1.36304 16.4703 0.822824 15.9301C0.282607 15.3899 0.158691 14.6982 0.158691 14.16V12.24C0.158691 10.9455 1.1673 9.80569 2.59298 9.80569H5.9644V2.95998C5.9644 1.53698 7.14939 0.571411 8.39869 0.571411H10.5015C11.7508 0.571411 12.9358 1.53698 12.9358 2.95998V9.80569H16.113V2.95998C16.113 1.53698 17.298 0.571411 18.5472 0.571411H20.6501C21.9889 0.571411 23.0844 1.57864 23.0844 2.95998V9.80569H26.4101C27.6602 9.80569 28.8444 10.8613 28.8444 12.24V14.16C28.8444 15.6261 27.6165 16.5943 26.4101 16.5943H23.0844V19.4514H26.4101C27.5708 19.4514 28.8444 20.3773 28.8444 21.84V23.76C28.8444 25.1432 27.7019 26.24 26.4101 26.24H23.0844V32.9942C23.0844 34.2887 22.0758 35.4285 20.6501 35.4285H18.5472C17.2097 35.4285 16.113 34.3318 16.113 32.9942V26.24ZM17.5415 15.4285V15.1657H17.5417V15.4285H17.5415ZM17.5417 24.8114H17.5415V32.9942C17.5415 33.4072 17.8006 33.7684 18.1628 33.9217C17.8007 33.7683 17.5417 33.4072 17.5417 32.9943V24.8114ZM21.656 20.88H26.4101C26.4189 20.88 26.4278 20.8801 26.4366 20.8803C26.4314 20.8802 26.4261 20.8801 26.4208 20.88C26.4173 20.88 26.4138 20.88 26.4102 20.88H21.656V20.88ZM26.4101 11.2343C26.4189 11.2343 26.4278 11.2344 26.4366 11.2347C26.4278 11.2344 26.419 11.2343 26.4102 11.2343H21.656V11.2343H26.4101ZM20.6502 2C20.664 2 20.6777 2.00021 20.6913 2.00065C20.6777 2.0002 20.6639 1.99998 20.6501 1.99998H18.5472C17.9987 1.99998 17.5415 2.41141 17.5415 2.95998V11.2343H11.5074V11.2343H17.5417V2.96C17.5417 2.41143 17.9988 2 18.5474 2H20.6502ZM10.5015 1.99998C10.5313 1.99998 10.5608 2.00119 10.59 2.00358C10.5609 2.0012 10.5314 2 10.5017 2H8.39883C7.85026 2 7.39311 2.41143 7.39311 2.96V11.2343H2.59312C1.99883 11.2343 1.5874 11.6914 1.5874 12.24V14.16C1.5874 14.7346 1.81207 15.0524 2.2883 15.1403C1.81197 15.0524 1.58726 14.7346 1.58726 14.16V12.24C1.58726 11.6914 1.99869 11.2343 2.59298 11.2343H7.39297V2.95998C7.39297 2.41141 7.85011 1.99998 8.39869 1.99998H10.5015ZM7.39311 15.1657H7.39297V20.88H2.59298C1.99869 20.88 1.58726 21.2914 1.58726 21.84V23.76C1.58726 24.2437 1.85983 24.6365 2.2817 24.766C1.8599 24.6365 1.5874 24.2436 1.5874 23.76V21.84C1.5874 21.2914 1.99883 20.88 2.59312 20.88H7.39311V15.1657ZM7.39297 32.9942V24.8114H7.39311V32.9943C7.39311 33.4072 7.65213 33.7684 8.0142 33.9217C7.65206 33.7684 7.39297 33.4072 7.39297 32.9942Z" fill="#26262E"/>
</svg>
